<?xml version="1.0" encoding="UTF-8"?>
<!DOCTYPE svg PUBLIC "-//W3C//DTD SVG 1.1//EN" "http://www.w3.org/Graphics/SVG/1.1/DTD/svg11.dtd">
<svg xmlns="http://www.w3.org/2000/svg" version="1.1" width="1943px" height="1713px" style="shape-rendering:geometricPrecision; text-rendering:geometricPrecision; image-rendering:optimizeQuality; fill-rule:evenodd; clip-rule:evenodd" xmlns:xlink="http://www.w3.org/1999/xlink">
<g><path style="opacity:0.979" fill="#d13a80" d="M 963.5,0.5 C 1038.42,-1.67149 1112.75,3.82851 1186.5,17C 1221.18,23.8379 1255.18,33.1712 1288.5,45C 1323.56,57.687 1358.23,71.3537 1392.5,86C 1434.3,104.532 1472.96,127.866 1508.5,156C 1522.17,163.833 1535.5,172.166 1548.5,181C 1556.05,189.1 1554.71,195.266 1544.5,199.5C 1359.43,72.323 1155.1,23.823 931.5,54C 813.915,71.4096 705.249,112.076 605.5,176C 573.048,197.118 541.715,219.785 511.5,244C 506.391,248.063 503.558,253.229 503,259.5C 568.689,237.095 636.189,223.262 705.5,218C 735.789,215.336 766.123,213.336 796.5,212C 807.547,212.406 817.547,209.406 826.5,203C 869.103,166.066 914.769,133.4 963.5,105C 982.589,95.1218 1001.92,85.7885 1021.5,77C 1026.77,75.932 1031.77,76.5987 1036.5,79C 1037.73,80.5874 1037.39,81.9207 1035.5,83C 1009.45,102.72 983.114,122.053 956.5,141C 944.239,150.59 932.572,160.924 921.5,172C 912.805,177.023 904.972,183.19 898,190.5C 891.883,203.765 896.05,211.932 910.5,215C 1025.04,219.697 1138.04,235.697 1249.5,263C 1295.12,274.872 1339.78,289.539 1383.5,307C 1394.07,309.969 1404.57,313.136 1415,316.5C 1424.85,315.755 1428.52,310.755 1426,301.5C 1403.64,254.417 1377.97,209.417 1349,166.5C 1340.76,155.677 1332.76,144.677 1325,133.5C 1324.16,131.179 1323.83,128.845 1324,126.5C 1329.25,123.717 1334.41,123.884 1339.5,127C 1397.31,183.489 1443.48,248.323 1478,321.5C 1486.72,334.609 1497.89,345.109 1511.5,353C 1570.46,381.463 1626.46,414.463 1679.5,452C 1696.46,465.289 1713.12,478.955 1729.5,493C 1745.33,508.833 1761.17,524.667 1777,540.5C 1779.27,546.813 1777.43,551.646 1771.5,555C 1768.41,555.652 1765.41,555.318 1762.5,554C 1735.67,529.509 1706.34,508.509 1674.5,491C 1625.45,465.806 1576.11,441.139 1526.5,417C 1521.5,416.316 1518.33,418.483 1517,423.5C 1516.33,425.5 1516.33,427.5 1517,429.5C 1541.36,486.287 1554.36,545.621 1556,607.5C 1557.36,637.156 1557.69,666.823 1557,696.5C 1554.87,702.584 1551.37,707.751 1546.5,712C 1525.09,728.019 1501.09,734.352 1474.5,731C 1358.86,702.756 1242.86,676.09 1126.5,651C 1050.18,634.948 973.517,621.281 896.5,610C 894.622,608.457 893.122,606.624 892,604.5C 890.856,572.316 906.356,558.149 938.5,562C 1027.55,572.73 1115.55,589.064 1202.5,611C 1276.55,629.178 1349.88,649.845 1422.5,673C 1441.32,679.273 1459.99,685.939 1478.5,693C 1482.76,694.363 1487.09,694.696 1491.5,694C 1495.17,692.332 1497.33,689.499 1498,685.5C 1499.87,591.456 1488.2,499.122 1463,408.5C 1460.16,398.636 1453.99,391.803 1444.5,388C 1250.6,324.353 1051.76,286.519 848,274.5C 833.463,272.897 821.463,277.564 812,288.5C 795.372,313.799 777.205,337.966 757.5,361C 742.679,373.026 726.346,375.692 708.5,369C 700.567,363.862 698.734,357.028 703,348.5C 717.18,327.317 732.514,306.983 749,287.5C 752.03,283.613 753.03,279.28 752,274.5C 750.2,272.683 748.034,271.516 745.5,271C 652.304,266.989 560.304,275.655 469.5,297C 454.08,300.787 441.58,308.954 432,321.5C 406,360.167 380,398.833 354,437.5C 331.256,473.32 311.922,510.987 296,550.5C 293.229,556.577 292.229,562.911 293,569.5C 295.344,571.774 298.178,572.941 301.5,573C 310.685,573.142 319.852,572.642 329,571.5C 334.175,572.279 339.342,573.113 344.5,574C 344.957,574.414 345.291,574.914 345.5,575.5C 341.589,581.911 336.256,586.744 329.5,590C 316.915,592.991 304.248,595.658 291.5,598C 284.432,600.115 278.932,604.282 275,610.5C 262.561,658.923 251.061,707.59 240.5,756.5C 242.27,765.442 247.27,771.942 255.5,776C 297.149,797.157 338.482,818.823 379.5,841C 386.725,846.254 389.225,853.087 387,861.5C 384.066,867.033 380.4,872.033 376,876.5C 372.175,884.819 367.842,892.819 363,900.5C 357.068,906.024 350.235,907.524 342.5,905C 319.699,892.099 297.365,878.433 275.5,864C 270.017,859.094 264.351,854.428 258.5,850C 245.375,845.239 238.708,849.905 238.5,864C 240.26,888.021 242.26,912.021 244.5,936C 245.13,955.066 236.13,966.733 217.5,971C 205.269,974.141 192.935,976.808 180.5,979C 173.285,980.113 166.285,979.446 159.5,977C 156.469,974.441 154.302,971.274 153,967.5C 123.832,761.322 165.166,570.655 277,395.5C 361.205,264.287 472.372,162.787 610.5,91C 696.59,53.1932 785.923,25.8599 878.5,9C 906.847,4.74255 935.181,1.90922 963.5,0.5 Z M 651.5,429.5 C 665.504,429.333 679.504,429.5 693.5,430C 622.39,481.461 566.557,545.961 526,623.5C 520,635.5 514,647.5 508,659.5C 506.127,661.709 503.96,663.542 501.5,665C 468.475,662.975 443.975,647.475 428,618.5C 415.308,586.961 417.308,556.294 434,526.5C 449.988,499.086 472.488,478.919 501.5,466C 549.154,443.752 599.154,431.586 651.5,429.5 Z"/></g>
<g><path style="opacity:0.881" fill="#d13a80" d="M 1550.5,208.5 C 1560.68,206.617 1570.35,208.451 1579.5,214C 1597.57,225.365 1609.4,241.198 1615,261.5C 1593.34,243.999 1571.84,226.332 1550.5,208.5 Z"/></g>
<g><path style="opacity:0.839" fill="#d13a80" d="M 1639.5,271.5 C 1656.26,282.432 1666.43,297.765 1670,317.5C 1658,304.833 1646,292.167 1634,279.5C 1633.33,278.5 1633.33,277.5 1634,276.5C 1636.19,275.167 1638.02,273.5 1639.5,271.5 Z"/></g>
<g><path style="opacity:0.977" fill="#4c2f64" d="M 648.5,400.5 C 701.835,400.577 755.169,400.911 808.5,401.5C 807.076,412.172 801.409,419.672 791.5,424C 756.996,429.931 726.329,443.931 699.5,466C 661.667,500.479 629.834,539.645 604,583.5C 591.245,608.765 580.245,634.765 571,661.5C 569.038,668.075 571.205,672.575 577.5,675C 647.064,673.772 688.231,638.939 701,570.5C 702.563,567.272 705.063,565.105 708.5,564C 715.355,562.965 722.022,563.632 728.5,566C 734.055,570.578 735.888,576.412 734,583.5C 727.138,630.091 703.304,664.924 662.5,688C 633.121,703.512 601.788,711.512 568.5,712C 555.386,715.781 546.886,724.281 543,737.5C 515.432,805.302 483.099,870.635 446,933.5C 444.932,936.871 443.765,940.204 442.5,943.5C 470.768,936.537 496.768,924.37 520.5,907C 580.129,852.707 636.296,795.207 689,734.5C 728.751,687.06 763.418,636.06 793,581.5C 805.162,564.512 816.829,547.179 828,529.5C 833.45,522.384 840.617,518.217 849.5,517C 860.863,516.279 872.196,516.612 883.5,518C 888.67,520.471 889.837,524.304 887,529.5C 859.577,583.197 828.577,634.531 794,683.5C 780.246,703.343 766.246,723.009 752,742.5C 749.488,746.024 747.654,749.858 746.5,754C 749.783,756.24 753.45,757.407 757.5,757.5C 769.951,753.295 782.618,749.795 795.5,747C 816.72,743.309 836.053,747.642 853.5,760C 875.871,781.893 881.038,807.393 869,836.5C 864.262,847.652 858.262,857.986 851,867.5C 834.964,884.535 819.297,901.868 804,919.5C 796.749,930.333 799.249,938 811.5,942.5C 814.284,941.608 816.95,940.442 819.5,939C 843.604,917.565 867.104,895.399 890,872.5C 906.005,854.489 919.672,834.822 931,813.5C 962.735,765.884 1007.23,744.384 1064.5,749C 1079.62,751.143 1092.45,757.643 1103,768.5C 1111.99,784.597 1110.66,799.93 1099,814.5C 1084.62,831.11 1066.79,842.277 1045.5,848C 1030.61,851.538 1015.61,854.538 1000.5,857C 983.297,865.878 972.13,879.711 967,898.5C 961.499,918.027 967.332,932.86 984.5,943C 994.54,946.826 1003.87,945.493 1012.5,939C 1052.3,906.869 1088.46,871.036 1121,831.5C 1151.17,801.198 1184,774.364 1219.5,751C 1229.7,748.571 1240.03,747.904 1250.5,749C 1260.41,749.771 1270.08,751.604 1279.5,754.5C 1282.02,758.818 1281.85,763.151 1279,767.5C 1255.72,802.441 1232.06,837.108 1208,871.5C 1199.5,884.502 1191.5,897.835 1184,911.5C 1180.7,932.197 1189.53,942.364 1210.5,942C 1214.73,940.885 1218.73,939.219 1222.5,937C 1288.06,890.781 1341.89,833.614 1384,765.5C 1396.25,751.971 1411.42,747.138 1429.5,751C 1436.52,751.557 1442.68,754.057 1448,758.5C 1450.44,763.908 1451.11,769.574 1450,775.5C 1440.53,795.122 1429.53,813.789 1417,831.5C 1407.29,842.878 1397.95,854.545 1389,866.5C 1380.32,881.536 1372.99,897.202 1367,913.5C 1364.29,915.871 1361.96,918.537 1360,921.5C 1360.29,926.835 1362.79,931.002 1367.5,934C 1371.38,937.216 1375.71,939.549 1380.5,941C 1400.57,938.3 1418.57,930.633 1434.5,918C 1447.87,906.29 1461.54,894.956 1475.5,884C 1485.75,875.756 1494.58,866.256 1502,855.5C 1506.18,846.957 1507.52,837.957 1506,828.5C 1497.09,805.158 1499.09,782.825 1512,761.5C 1520.67,751.719 1531.51,747.886 1544.5,750C 1564.06,751.397 1573.73,761.897 1573.5,781.5C 1573.14,796.293 1569.64,810.293 1563,823.5C 1557.36,831.939 1553.53,841.105 1551.5,851C 1552.12,858.626 1556.12,863.626 1563.5,866C 1575.64,869.19 1585.47,865.69 1593,855.5C 1606.82,831.734 1623.65,810.234 1643.5,791C 1678.23,761.469 1718.57,745.969 1764.5,744.5C 1772.94,744.266 1781.28,745.099 1789.5,747C 1800.96,750.567 1812.29,754.4 1823.5,758.5C 1834.3,756.178 1844.97,753.344 1855.5,750C 1865.57,749.488 1875.57,750.155 1885.5,752C 1886.93,752.465 1888.1,753.299 1889,754.5C 1889.67,757.5 1889.67,760.5 1889,763.5C 1885.82,772.854 1881.82,781.854 1877,790.5C 1853.92,829 1830.58,867.333 1807,905.5C 1801.62,911.216 1797.45,917.716 1794.5,925C 1800.86,938.556 1810.19,940.889 1822.5,932C 1836.8,920.039 1850.8,907.705 1864.5,895C 1881.22,877.614 1897.89,860.28 1914.5,843C 1926.02,841.015 1934.18,845.515 1939,856.5C 1940.34,862.813 1939,868.48 1935,873.5C 1922.97,885.866 1911.3,898.533 1900,911.5C 1881.87,930.648 1861.7,947.148 1839.5,961C 1827.51,967.774 1814.84,972.774 1801.5,976C 1785.52,977.896 1771.19,973.896 1758.5,964C 1752.35,958.429 1746.02,953.096 1739.5,948C 1734,944.698 1728.67,945.031 1723.5,949C 1709.61,962.861 1692.94,971.528 1673.5,975C 1640.76,978.054 1617.26,964.887 1603,935.5C 1599.23,926.078 1596.23,916.411 1594,906.5C 1592.35,901.341 1588.85,898.674 1583.5,898.5C 1576.48,900.228 1569.48,902.061 1562.5,904C 1556.54,904.761 1550.87,903.761 1545.5,901C 1540.21,894.522 1533.54,890.355 1525.5,888.5C 1521.01,888.72 1517.01,890.22 1513.5,893C 1502.2,903.303 1491.2,913.97 1480.5,925C 1464.49,939.67 1446.82,952.004 1427.5,962C 1395.68,975.347 1363.02,978.014 1329.5,970C 1320.17,966.335 1313,960.168 1308,951.5C 1304.61,944.664 1301.61,937.664 1299,930.5C 1293.82,925.572 1288.32,925.406 1282.5,930C 1259.59,950.628 1233.25,965.295 1203.5,974C 1161.66,979.156 1137.16,960.989 1130,919.5C 1129.67,906.5 1129.33,893.5 1129,880.5C 1115.77,893.975 1102.77,907.642 1090,921.5C 1069.22,945.474 1043.72,962.308 1013.5,972C 997.672,976.076 981.672,977.076 965.5,975C 943.62,966.455 927.453,951.622 917,930.5C 914.27,924.309 911.937,917.976 910,911.5C 884.95,931.883 858.783,950.717 831.5,968C 814.506,977.761 796.506,980.428 777.5,976C 758.715,967.986 746.215,954.153 740,934.5C 737.451,923.185 738.451,912.185 743,901.5C 756.874,873.737 774.207,848.403 795,825.5C 805,814.833 815,804.167 825,793.5C 827.58,783.362 823.58,777.362 813,775.5C 757.842,788.902 712.842,817.902 678,862.5C 658.495,890.831 640.495,920.164 624,950.5C 612.945,963.362 598.945,970.695 582,972.5C 571.458,972.567 563.458,968.234 558,959.5C 556.874,953.547 558.207,948.214 562,943.5C 566.161,938.514 569.827,933.181 573,927.5C 577.214,923.618 581.714,920.118 586.5,917C 593.412,910.833 593.079,905.167 585.5,900C 583.5,899.333 581.5,899.333 579.5,900C 573.458,906.373 567.792,913.04 562.5,920C 522.784,949.023 479.118,970.356 431.5,984C 424.573,987.542 418.739,992.376 414,998.5C 371.832,1069.92 317.332,1130.42 250.5,1180C 191.42,1219.48 127.42,1230.48 58.5,1213C 20.6303,1198.43 3.79694,1170.93 8,1130.5C 12.7164,1113.73 21.0498,1099.06 33,1086.5C 63.6618,1055.9 99.8285,1034.07 141.5,1021C 207.317,1000.39 273.984,983.061 341.5,969C 357.913,963.921 370.08,953.754 378,938.5C 412.454,864.258 447.454,790.258 483,716.5C 485.954,709.984 484.787,704.484 479.5,700C 450.742,691.048 425.909,675.881 405,654.5C 389.013,635.19 378.346,613.19 373,588.5C 372.333,580.833 372.333,573.167 373,565.5C 392.415,491.417 438.915,443.584 512.5,422C 557.091,409.275 602.425,402.108 648.5,400.5 Z M 651.5,429.5 C 599.154,431.586 549.154,443.752 501.5,466C 472.488,478.919 449.988,499.086 434,526.5C 417.308,556.294 415.308,586.961 428,618.5C 443.975,647.475 468.475,662.975 501.5,665C 503.96,663.542 506.127,661.709 508,659.5C 514,647.5 520,635.5 526,623.5C 566.557,545.961 622.39,481.461 693.5,430C 679.504,429.5 665.504,429.333 651.5,429.5 Z M 1770.5,776.5 C 1780,775.972 1789,777.805 1797.5,782C 1804.89,788.627 1806.39,796.461 1802,805.5C 1777.92,856.249 1742.42,897.082 1695.5,928C 1685.8,934.6 1675.3,939.433 1664,942.5C 1649.8,940.642 1643.47,932.642 1645,918.5C 1664.4,859.775 1700.23,813.942 1752.5,781C 1758.45,778.783 1764.45,777.283 1770.5,776.5 Z M 331.5,1004.5 C 333.167,1004.5 334.833,1004.5 336.5,1004.5C 337.905,1015.21 335.405,1024.88 329,1033.5C 324.033,1039.47 318.699,1045.14 313,1050.5C 291.631,1083.34 266.797,1113.5 238.5,1141C 214.563,1162.81 186.896,1178.14 155.5,1187C 126.117,1193.83 97.1174,1192.5 68.5,1183C 46.6,1173.7 38.7667,1157.53 45,1134.5C 50.2252,1121.21 58.0585,1109.71 68.5,1100C 79.3428,1090.83 91.0094,1082.83 103.5,1076C 139.781,1057.2 177.781,1042.86 217.5,1033C 255.71,1023.8 293.71,1014.3 331.5,1004.5 Z"/></g>
<g><path style="opacity:0.982" fill="#d33e83" d="M 510.5,541.5 C 525.345,541.519 530.178,548.519 525,562.5C 520.383,571.765 512.883,577.265 502.5,579C 489.853,580.706 477.187,580.706 464.5,579C 459.703,577.421 457.036,574.088 456.5,569C 457.642,554.856 465.309,546.856 479.5,545C 489.982,543.853 500.315,542.686 510.5,541.5 Z"/></g>
<g><path style="opacity:0.948" fill="#d13a80" d="M 584.5,742.5 C 589.449,741.959 594.116,742.792 598.5,745C 600.487,746.319 601.654,748.152 602,750.5C 603.317,768.245 598.317,783.911 587,797.5C 573.667,810.167 560.333,822.833 547,835.5C 544.458,817.51 547.125,800.176 555,783.5C 561.587,769.596 569.754,756.763 579.5,745C 581.315,744.243 582.981,743.41 584.5,742.5 Z"/></g>
<g><path style="opacity:1" fill="#f9f7f9" d="M 1042.5,778.5 C 1049.84,778.334 1057.17,778.5 1064.5,779C 1073.23,780.051 1077.06,784.884 1076,793.5C 1072.67,797.5 1069.33,801.5 1066,805.5C 1052.89,814.764 1038.39,820.931 1022.5,824C 1015.45,824.797 1008.45,824.63 1001.5,823.5C 999.026,819.988 998.859,816.321 1001,812.5C 1009.2,803.969 1017.7,795.802 1026.5,788C 1031.43,784.038 1036.77,780.871 1042.5,778.5 Z"/></g>
<g><path style="opacity:0.97" fill="#d13a80" d="M 1524.5,929.5 C 1536.05,927.599 1542.38,932.433 1543.5,944C 1537.93,963.797 1532.43,983.631 1527,1003.5C 1520.2,1019.3 1509.03,1030.8 1493.5,1038C 1477.42,1040.38 1465.92,1034.21 1459,1019.5C 1457,1012.83 1457,1006.17 1459,999.5C 1472.05,972.114 1491.21,949.947 1516.5,933C 1519.31,931.907 1521.98,930.74 1524.5,929.5 Z"/></g>
<g><path style="opacity:0.971" fill="#d13980" d="M 810.5,1031.5 C 806.818,1031.33 803.152,1031.5 799.5,1032C 798.663,1033.01 798.33,1034.18 798.5,1035.5C 801.836,1035.47 805.003,1036.13 808,1037.5C 807.648,1044.4 806.148,1051.06 803.5,1057.5C 802.833,1057.5 802.5,1057.83 802.5,1058.5C 800.801,1058.62 799.135,1058.95 797.5,1059.5C 790.49,1057.5 783.49,1055.5 776.5,1053.5C 775.232,1054.43 773.899,1054.59 772.5,1054C 770.876,1050.99 769.376,1047.82 768,1044.5C 764.108,1041.32 759.608,1039.65 754.5,1039.5C 735.429,1040.85 716.429,1040.02 697.5,1037C 656.167,1028.33 614.833,1019.67 573.5,1011C 555.287,1006.84 540.121,1011.67 528,1025.5C 526.295,1027.58 525.128,1029.91 524.5,1032.5C 523.609,1033.11 522.609,1033.44 521.5,1033.5C 509.533,1021.17 507.033,1007.17 514,991.5C 519.994,982.951 528.16,980.117 538.5,983C 551.588,987.807 564.921,991.807 578.5,995C 597.817,998.504 615.15,994.171 630.5,982C 640.4,971.522 650.067,960.856 659.5,950C 679.715,937.229 697.882,939.729 714,957.5C 722.314,972.485 733.481,984.985 747.5,995C 761.447,1002.9 776.447,1007.24 792.5,1008C 805.074,1010.75 811.074,1018.58 810.5,1031.5 Z"/></g>
<g><path style="opacity:0.942" fill="#d13a80" d="M 934.5,1032.5 C 933.833,1032.5 933.5,1032.83 933.5,1033.5C 932.833,1033.83 932.167,1034.17 931.5,1034.5C 928.36,1036.19 925.026,1036.69 921.5,1036C 917.221,1031.72 912.887,1027.39 908.5,1023C 903.33,1019.38 897.663,1016.72 891.5,1015C 878.896,1013.14 866.229,1011.8 853.5,1011C 849.347,1010.62 845.347,1009.62 841.5,1008C 834.329,1004.39 833.996,1000.39 840.5,996C 851.566,988.229 863.566,986.229 876.5,990C 880.677,992.059 885.01,993.726 889.5,995C 906.619,998.53 923.619,1002.53 940.5,1007C 941.931,1007.47 943.097,1008.3 944,1009.5C 945.212,1019.07 942.045,1026.73 934.5,1032.5 Z"/></g>
<g><path style="opacity:0.852" fill="#231f20" d="M 521.5,1033.5 C 522.609,1033.44 523.609,1033.11 524.5,1032.5C 529.556,1031.04 534.556,1029.37 539.5,1027.5C 541,1027.45 542,1028.12 542.5,1029.5C 537.071,1042.62 532.571,1055.95 529,1069.5C 532.167,1065 536,1061.17 540.5,1058C 552.466,1053.1 558.466,1057.27 558.5,1070.5C 556.897,1088.25 547.897,1100.42 531.5,1107C 526.833,1107.67 522.167,1107.67 517.5,1107C 512.219,1104.53 510.386,1100.36 512,1094.5C 517.406,1075.45 522.906,1056.45 528.5,1037.5C 525.833,1037.5 523.167,1037.5 520.5,1037.5C 520.433,1036.04 520.766,1034.71 521.5,1033.5 Z M 542.5,1063.5 C 543.822,1063.33 544.989,1063.66 546,1064.5C 549.614,1077.88 546.447,1089.38 536.5,1099C 523.599,1105.44 519.099,1101.61 523,1087.5C 527.501,1077.84 534.001,1069.84 542.5,1063.5 Z"/></g>
<g><path style="opacity:0.853" fill="#221f1f" d="M 931.5,1034.5 C 932.167,1034.17 932.833,1033.83 933.5,1033.5C 934.167,1033.5 934.5,1033.17 934.5,1032.5C 940.074,1031.64 945.408,1029.98 950.5,1027.5C 952,1027.45 953,1028.12 953.5,1029.5C 944.809,1051.89 937.809,1074.56 932.5,1097.5C 935.503,1096.33 938.17,1094.67 940.5,1092.5C 941.833,1093.17 942.833,1094.17 943.5,1095.5C 937.617,1102.94 929.951,1106.94 920.5,1107.5C 920.336,1104.81 920.503,1102.15 921,1099.5C 928.086,1079.08 934.253,1058.41 939.5,1037.5C 936.833,1037.5 934.167,1037.5 931.5,1037.5C 931.5,1036.5 931.5,1035.5 931.5,1034.5 Z"/></g>
<g><path style="opacity:0.852" fill="#221f1f" d="M 1074.5,1027.5 C 1076.66,1027.12 1078.33,1027.78 1079.5,1029.5C 1073.4,1044.62 1068.24,1059.95 1064,1075.5C 1070.06,1066.77 1077.89,1060.27 1087.5,1056C 1094.92,1053.44 1098.09,1055.94 1097,1063.5C 1093.39,1074.82 1089.89,1086.15 1086.5,1097.5C 1089.69,1096.34 1092.69,1094.67 1095.5,1092.5C 1096.65,1093.14 1097.65,1093.98 1098.5,1095C 1094.24,1100.46 1088.91,1104.46 1082.5,1107C 1074.56,1108.82 1072.39,1105.98 1076,1098.5C 1080.38,1087.41 1083.88,1076.08 1086.5,1064.5C 1084.35,1064.37 1082.35,1064.87 1080.5,1066C 1067.19,1076 1058.69,1089.16 1055,1105.5C 1051.87,1106.21 1048.7,1106.87 1045.5,1107.5C 1045.17,1107.17 1044.83,1106.83 1044.5,1106.5C 1052.28,1083.72 1059.28,1060.72 1065.5,1037.5C 1062.83,1037.5 1060.17,1037.5 1057.5,1037.5C 1057.33,1036.18 1057.66,1035.01 1058.5,1034C 1064.18,1032.43 1069.51,1030.26 1074.5,1027.5 Z"/></g>
<g><path style="opacity:0.858" fill="#221f1f" d="M 1260.5,1027.5 C 1262.35,1027.22 1263.68,1027.89 1264.5,1029.5C 1256.36,1051.57 1249.03,1073.91 1242.5,1096.5C 1243.36,1097.58 1244.36,1097.75 1245.5,1097C 1247.68,1095.49 1249.84,1093.99 1252,1092.5C 1253.3,1093.1 1254.13,1094.1 1254.5,1095.5C 1248.62,1102.94 1240.95,1106.94 1231.5,1107.5C 1231.39,1103.75 1231.89,1100.09 1233,1096.5C 1239.75,1077.08 1245.59,1057.41 1250.5,1037.5C 1247.83,1037.5 1245.17,1037.5 1242.5,1037.5C 1242.33,1036.18 1242.66,1035.01 1243.5,1034C 1249.45,1032.3 1255.12,1030.13 1260.5,1027.5 Z"/></g>
<g><path style="opacity:0.855" fill="#221f1f" d="M 1783.5,1027.5 C 1785.17,1027.5 1786.83,1027.5 1788.5,1027.5C 1783.81,1041.06 1779.65,1054.72 1776,1068.5C 1779.17,1065.33 1782.33,1062.17 1785.5,1059C 1797.98,1052.07 1804.32,1055.74 1804.5,1070C 1803.29,1088.1 1794.29,1100.43 1777.5,1107C 1773.17,1107.67 1768.83,1107.67 1764.5,1107C 1762.15,1106.65 1760.32,1105.49 1759,1103.5C 1758.33,1099.83 1758.33,1096.17 1759,1092.5C 1764.33,1074.18 1769.5,1055.84 1774.5,1037.5C 1771.81,1037.66 1769.15,1037.5 1766.5,1037C 1767.07,1035.79 1767.74,1034.63 1768.5,1033.5C 1773.91,1032.26 1778.91,1030.26 1783.5,1027.5 Z M 1789.5,1063.5 C 1792.19,1064.02 1793.69,1065.69 1794,1068.5C 1795.26,1081.15 1791.09,1091.65 1781.5,1100C 1774.68,1104.55 1770.01,1103.05 1767.5,1095.5C 1770.89,1082.02 1778.23,1071.36 1789.5,1063.5 Z"/></g>
<g><path style="opacity:0.85" fill="#221f1f" d="M 1889.5,1027.5 C 1890.83,1027.5 1892.17,1027.5 1893.5,1027.5C 1888.51,1042.79 1883.51,1058.13 1878.5,1073.5C 1878.67,1073.83 1878.83,1074.17 1879,1074.5C 1884.2,1068.97 1889.7,1063.8 1895.5,1059C 1899.79,1056.12 1904.46,1055.12 1909.5,1056C 1911.5,1058.84 1912,1062.01 1911,1065.5C 1907.53,1075.41 1904.36,1085.41 1901.5,1095.5C 1901.83,1096.17 1902.17,1096.83 1902.5,1097.5C 1905.17,1095.83 1907.83,1094.17 1910.5,1092.5C 1911.72,1092.89 1912.39,1093.72 1912.5,1095C 1908.43,1100.06 1903.43,1104.06 1897.5,1107C 1894.85,1107.5 1892.19,1107.66 1889.5,1107.5C 1889.39,1103.75 1889.89,1100.09 1891,1096.5C 1894.71,1086.38 1898.21,1076.21 1901.5,1066C 1900.89,1065.13 1900.06,1064.63 1899,1064.5C 1882.75,1073.93 1872.92,1087.93 1869.5,1106.5C 1866.42,1106.26 1863.42,1106.59 1860.5,1107.5C 1860.17,1106.83 1859.83,1106.17 1859.5,1105.5C 1866.81,1083.07 1873.81,1060.57 1880.5,1038C 1877.5,1037.67 1874.5,1037.33 1871.5,1037C 1872.07,1035.79 1872.74,1034.63 1873.5,1033.5C 1879.15,1032.06 1884.49,1030.06 1889.5,1027.5 Z"/></g>
<g><path style="opacity:0.868" fill="#221f1f" d="M 1679.5,1029.5 C 1688.56,1028.56 1697.06,1030.22 1705,1034.5C 1704.01,1040.8 1702.84,1047.14 1701.5,1053.5C 1699.83,1053.5 1698.17,1053.5 1696.5,1053.5C 1697.34,1036.85 1690.01,1031.68 1674.5,1038C 1669.78,1042.69 1669.28,1047.86 1673,1053.5C 1679,1059.5 1685,1065.5 1691,1071.5C 1698.8,1087.78 1694.3,1099.61 1677.5,1107C 1666.38,1109.74 1655.72,1108.57 1645.5,1103.5C 1645.17,1103 1644.83,1102.5 1644.5,1102C 1646.72,1095.61 1648.56,1089.11 1650,1082.5C 1651.7,1081.59 1653.53,1081.26 1655.5,1081.5C 1653.28,1098.12 1660.28,1104.28 1676.5,1100C 1683.73,1094.03 1685.23,1086.87 1681,1078.5C 1674.98,1071.48 1668.64,1064.81 1662,1058.5C 1657.12,1048.39 1659.29,1040.23 1668.5,1034C 1672.16,1032.18 1675.82,1030.68 1679.5,1029.5 Z"/></g>
<g><path style="opacity:0.87" fill="#221f1f" d="M 436.5,1031.5 C 447.833,1031.5 459.167,1031.5 470.5,1031.5C 470.5,1032.83 470.5,1034.17 470.5,1035.5C 466.424,1035.68 462.591,1036.68 459,1038.5C 451.934,1058.36 445.268,1078.36 439,1098.5C 430.381,1108.59 419.881,1111.09 407.5,1106C 406.978,1105.44 406.645,1104.77 406.5,1104C 408.474,1098.58 410.14,1093.08 411.5,1087.5C 413.5,1086.17 415.5,1086.17 417.5,1087.5C 416.151,1091.87 416.318,1096.21 418,1100.5C 423.148,1103.74 426.815,1102.41 429,1096.5C 435.382,1077.47 441.215,1058.3 446.5,1039C 443.052,1037.05 439.385,1035.55 435.5,1034.5C 436.127,1033.58 436.461,1032.58 436.5,1031.5 Z"/></g>
<g><path style="opacity:0.882" fill="#231f20" d="M 810.5,1031.5 C 817.833,1031.5 825.167,1031.5 832.5,1031.5C 832.5,1032.83 832.5,1034.17 832.5,1035.5C 828.424,1035.68 824.591,1036.68 821,1038.5C 817.562,1046.48 814.729,1054.65 812.5,1063C 824.094,1065.13 835.594,1064.96 847,1062.5C 849.322,1054.88 851.489,1047.21 853.5,1039.5C 853.182,1038.35 852.516,1037.52 851.5,1037C 848.883,1036.18 846.216,1035.68 843.5,1035.5C 843.5,1034.17 843.5,1032.83 843.5,1031.5C 854.833,1031.5 866.167,1031.5 877.5,1031.5C 877.5,1032.83 877.5,1034.17 877.5,1035.5C 871.011,1034.99 866.511,1037.66 864,1043.5C 857.719,1062.29 852.219,1081.29 847.5,1100.5C 850.833,1101.17 854.167,1101.83 857.5,1102.5C 857.5,1103.83 857.5,1105.17 857.5,1106.5C 846.167,1106.5 834.833,1106.5 823.5,1106.5C 823.5,1105.17 823.5,1103.83 823.5,1102.5C 827.53,1102.2 831.363,1101.2 835,1099.5C 838.466,1090.27 841.633,1080.93 844.5,1071.5C 838.833,1071.17 833.167,1070.83 827.5,1070.5C 821.423,1070.52 815.59,1071.19 810,1072.5C 807.422,1081.31 804.922,1090.14 802.5,1099C 805.316,1101.38 808.649,1102.55 812.5,1102.5C 812.5,1103.83 812.5,1105.17 812.5,1106.5C 801.167,1106.5 789.833,1106.5 778.5,1106.5C 778.5,1105.17 778.5,1103.83 778.5,1102.5C 782.53,1102.2 786.363,1101.2 790,1099.5C 795.253,1086.15 799.419,1072.49 802.5,1058.5C 803.167,1058.5 803.5,1058.17 803.5,1057.5C 806.148,1051.06 807.648,1044.4 808,1037.5C 805.003,1036.13 801.836,1035.47 798.5,1035.5C 798.33,1034.18 798.663,1033.01 799.5,1032C 803.152,1031.5 806.818,1031.33 810.5,1031.5 Z"/></g>
<g><path style="opacity:0.857" fill="#221f1f" d="M 990.5,1031.5 C 1010.18,1031.17 1029.84,1031.5 1049.5,1032.5C 1047.68,1038.12 1046.01,1043.79 1044.5,1049.5C 1042.95,1050.45 1041.29,1050.79 1039.5,1050.5C 1039.8,1046.23 1039.46,1042.07 1038.5,1038C 1029.81,1037.17 1021.15,1037.33 1012.5,1038.5C 1009.83,1046.83 1007.17,1055.17 1004.5,1063.5C 1010.14,1064.66 1015.8,1064.83 1021.5,1064C 1024.31,1061.4 1026.64,1058.4 1028.5,1055C 1029.79,1054.51 1031.13,1054.34 1032.5,1054.5C 1030.01,1063.46 1027.68,1072.46 1025.5,1081.5C 1023.83,1081.5 1022.17,1081.5 1020.5,1081.5C 1021.03,1077.9 1021.03,1074.4 1020.5,1071C 1014.51,1070.3 1008.51,1069.8 1002.5,1069.5C 999.833,1079.83 997.167,1090.17 994.5,1100.5C 1004.17,1100.67 1013.84,1100.5 1023.5,1100C 1025.62,1098.88 1027.46,1097.38 1029,1095.5C 1030.83,1092.33 1032.67,1089.17 1034.5,1086C 1036.13,1085.51 1037.8,1085.34 1039.5,1085.5C 1037.47,1092.43 1035.14,1099.26 1032.5,1106C 1011.5,1106.67 990.5,1106.67 969.5,1106C 970.337,1104.99 970.67,1103.82 970.5,1102.5C 974.263,1102.14 977.93,1101.31 981.5,1100C 982.46,1098.58 983.293,1097.08 984,1095.5C 989.603,1076.86 995.103,1058.19 1000.5,1039.5C 999.91,1038.2 998.91,1037.37 997.5,1037C 994.728,1036.47 992.062,1035.64 989.5,1034.5C 990.127,1033.58 990.461,1032.58 990.5,1031.5 Z"/></g>
<g><path style="opacity:0.863" fill="#221f1f" d="M 1300.5,1031.5 C 1311.83,1031.5 1323.17,1031.5 1334.5,1031.5C 1334.67,1032.82 1334.34,1033.99 1333.5,1035C 1330.44,1035.85 1327.44,1036.85 1324.5,1038C 1323.3,1038.9 1322.47,1040.07 1322,1041.5C 1319.82,1056.12 1318.49,1070.78 1318,1085.5C 1327.67,1072.5 1337.33,1059.5 1347,1046.5C 1347.31,1044.44 1347.81,1042.44 1348.5,1040.5C 1348.17,1039.83 1347.83,1039.17 1347.5,1038.5C 1344.36,1036.88 1341.02,1035.88 1337.5,1035.5C 1337.5,1034.17 1337.5,1032.83 1337.5,1031.5C 1349.17,1031.33 1360.84,1031.5 1372.5,1032C 1371.66,1033.01 1371.33,1034.18 1371.5,1035.5C 1367.26,1035.75 1363.42,1037.08 1360,1039.5C 1357.6,1055.13 1355.94,1070.8 1355,1086.5C 1364,1073.83 1373,1061.17 1382,1048.5C 1384.87,1044.82 1387.04,1040.82 1388.5,1036.5C 1386.19,1036.01 1383.86,1035.67 1381.5,1035.5C 1381.33,1034.18 1381.66,1033.01 1382.5,1032C 1391.16,1031.5 1399.83,1031.33 1408.5,1031.5C 1408.5,1032.83 1408.5,1034.17 1408.5,1035.5C 1403.36,1035.49 1399.2,1037.49 1396,1041.5C 1380.09,1062.99 1364.42,1084.66 1349,1106.5C 1347.21,1108.23 1345.04,1108.9 1342.5,1108.5C 1344.11,1091.84 1345.28,1075.18 1346,1058.5C 1334.36,1074.97 1322.53,1091.31 1310.5,1107.5C 1308.95,1108.45 1307.29,1108.79 1305.5,1108.5C 1306.97,1086.99 1308.64,1065.49 1310.5,1044C 1310.46,1041.91 1310.13,1039.91 1309.5,1038C 1306.23,1036.85 1302.9,1036.02 1299.5,1035.5C 1299.43,1034.04 1299.77,1032.71 1300.5,1031.5 Z"/></g>
<g><path style="opacity:0.844" fill="#221f1f" d="M 1524.5,1032.5 C 1531.43,1032.7 1533.6,1036.03 1531,1042.5C 1527.95,1046.01 1524.62,1046.34 1521,1043.5C 1519.66,1038.87 1520.83,1035.21 1524.5,1032.5 Z"/></g>
<g><path style="opacity:0.843" fill="#221f1f" d="M 636.5,1043.5 C 638.308,1043.49 639.975,1043.99 641.5,1045C 639.833,1048.67 638.167,1052.33 636.5,1056C 640.821,1056.5 645.154,1056.67 649.5,1056.5C 649.617,1058.48 648.95,1060.15 647.5,1061.5C 643.217,1062.49 638.884,1062.83 634.5,1062.5C 630.884,1074.01 627.884,1085.68 625.5,1097.5C 629.897,1096.72 633.73,1094.72 637,1091.5C 638.022,1092.35 638.855,1093.35 639.5,1094.5C 633.17,1102.86 624.836,1107.19 614.5,1107.5C 614.579,1106.07 614.246,1104.74 613.5,1103.5C 617.503,1089.83 621.503,1076.16 625.5,1062.5C 623.076,1062.81 620.743,1062.47 618.5,1061.5C 619,1060.5 619.5,1059.5 620,1058.5C 627.616,1055.71 633.116,1050.71 636.5,1043.5 Z"/></g>
<g><path style="opacity:0.845" fill="#221f1f" d="M 1553.5,1043.5 C 1555.09,1043.63 1556.42,1044.29 1557.5,1045.5C 1555.97,1048.75 1554.64,1052.09 1553.5,1055.5C 1557.45,1056.49 1561.45,1056.82 1565.5,1056.5C 1565.82,1058.72 1565.16,1060.56 1563.5,1062C 1559.25,1062.2 1555.08,1062.7 1551,1063.5C 1547.44,1074.22 1544.28,1085.05 1541.5,1096C 1541.63,1097.06 1542.13,1097.89 1543,1098.5C 1546.67,1096.17 1550.33,1093.83 1554,1091.5C 1555.02,1092.35 1555.86,1093.35 1556.5,1094.5C 1551.82,1100.02 1546.15,1104.18 1539.5,1107C 1536.83,1107.67 1534.17,1107.67 1531.5,1107C 1530.89,1105.77 1530.56,1104.44 1530.5,1103C 1533.73,1089.42 1537.73,1076.09 1542.5,1063C 1540.19,1062.5 1537.86,1062.34 1535.5,1062.5C 1535.24,1061.02 1535.57,1059.69 1536.5,1058.5C 1543.75,1055.25 1549.41,1050.25 1553.5,1043.5 Z"/></g>
<g><path style="opacity:0.841" fill="#221f1f" d="M 488.5,1055.5 C 494.523,1055.5 500.523,1055.84 506.5,1056.5C 501.807,1069.08 497.807,1081.92 494.5,1095C 494.833,1095.83 495.167,1096.67 495.5,1097.5C 498.167,1095.83 500.833,1094.17 503.5,1092.5C 505.283,1093.35 505.783,1094.68 505,1096.5C 499.836,1101.33 494.003,1104.99 487.5,1107.5C 486.228,1107.43 485.062,1107.1 484,1106.5C 483.866,1102.74 484.199,1099.07 485,1095.5C 481.088,1100.08 476.588,1103.92 471.5,1107C 467.705,1107.84 464.039,1107.5 460.5,1106C 455.75,1098.14 455.25,1089.98 459,1081.5C 464.7,1067.96 474.533,1059.29 488.5,1055.5 Z M 484.5,1061.5 C 487.518,1061.34 490.518,1061.5 493.5,1062C 492.617,1078.59 485.117,1091.42 471,1100.5C 468.065,1098.46 466.565,1095.63 466.5,1092C 467.283,1078.58 473.283,1068.41 484.5,1061.5 Z"/></g>
<g><path style="opacity:0.842" fill="#221f1f" d="M 592.5,1055.5 C 598.523,1055.5 604.523,1055.84 610.5,1056.5C 605.503,1068.98 601.503,1081.81 598.5,1095C 598.833,1095.83 599.167,1096.67 599.5,1097.5C 602.167,1095.83 604.833,1094.17 607.5,1092.5C 609.283,1093.35 609.783,1094.68 609,1096.5C 603.836,1101.33 598.003,1104.99 591.5,1107.5C 590.228,1107.43 589.062,1107.1 588,1106.5C 587.866,1102.74 588.199,1099.07 589,1095.5C 585.088,1100.08 580.588,1103.92 575.5,1107C 566.892,1109.45 562.058,1106.29 561,1097.5C 561.08,1075.67 571.58,1061.67 592.5,1055.5 Z M 588.5,1061.5 C 591.518,1061.34 594.518,1061.5 597.5,1062C 596.617,1078.59 589.117,1091.42 575,1100.5C 572.065,1098.46 570.565,1095.63 570.5,1092C 571.299,1078.54 577.299,1068.37 588.5,1061.5 Z"/></g>
<g><path style="opacity:0.844" fill="#221f1f" d="M 677.5,1055.5 C 683.523,1055.5 689.523,1055.84 695.5,1056.5C 690.406,1068.95 686.406,1081.78 683.5,1095C 683.833,1095.83 684.167,1096.67 684.5,1097.5C 687.167,1095.83 689.833,1094.17 692.5,1092.5C 694.283,1093.35 694.783,1094.68 694,1096.5C 688.836,1101.33 683.003,1104.99 676.5,1107.5C 675.228,1107.43 674.062,1107.1 673,1106.5C 672.866,1102.74 673.199,1099.07 674,1095.5C 670.466,1099.37 666.633,1102.87 662.5,1106C 653.255,1110.13 647.755,1107.3 646,1097.5C 646.08,1075.67 656.58,1061.67 677.5,1055.5 Z M 673.5,1061.5 C 676.518,1061.34 679.518,1061.5 682.5,1062C 681.617,1078.59 674.117,1091.42 660,1100.5C 657.065,1098.46 655.565,1095.63 655.5,1092C 656.299,1078.54 662.299,1068.37 673.5,1061.5 Z"/></g>
<g><path style="opacity:0.848" fill="#221f1f" d="M 717.5,1055.5 C 721.24,1054.74 722.907,1056.24 722.5,1060C 721.164,1065.66 719.664,1071.16 718,1076.5C 723.167,1070 729,1064.17 735.5,1059C 738.737,1057.03 742.237,1055.87 746,1055.5C 748.034,1055.35 749.701,1056.02 751,1057.5C 751.667,1060.17 751.667,1062.83 751,1065.5C 747.627,1075.28 744.46,1085.12 741.5,1095C 741.833,1095.83 742.167,1096.67 742.5,1097.5C 745.167,1095.83 747.833,1094.17 750.5,1092.5C 753.123,1094.87 752.789,1097.04 749.5,1099C 745.844,1102.16 741.844,1104.83 737.5,1107C 735.167,1107.67 732.833,1107.67 730.5,1107C 729.903,1105.94 729.57,1104.77 729.5,1103.5C 733.201,1090.9 737.201,1078.4 741.5,1066C 740.892,1065.13 740.059,1064.63 739,1064.5C 723.223,1073.79 713.39,1087.46 709.5,1105.5C 706.503,1106.25 703.503,1106.91 700.5,1107.5C 700.167,1106.83 699.833,1106.17 699.5,1105.5C 703.601,1093.03 707.601,1080.53 711.5,1068C 711.167,1067.5 710.833,1067 710.5,1066.5C 707.888,1067.78 705.555,1069.45 703.5,1071.5C 702.354,1070.86 701.354,1070.02 700.5,1069C 705.203,1063.11 710.87,1058.61 717.5,1055.5 Z"/></g>
<g><path style="opacity:0.846" fill="#221f1f" d="M 898.5,1055.5 C 904.529,1055.43 910.529,1055.76 916.5,1056.5C 911.712,1069.2 907.712,1082.2 904.5,1095.5C 904.833,1096.17 905.167,1096.83 905.5,1097.5C 908.167,1095.83 910.833,1094.17 913.5,1092.5C 914.646,1093.14 915.646,1093.98 916.5,1095C 910.701,1102.06 903.368,1106.23 894.5,1107.5C 894.566,1103.44 894.733,1099.44 895,1095.5C 891.466,1099.37 887.633,1102.87 883.5,1106C 876.236,1109.45 871.069,1107.61 868,1100.5C 866.51,1077.51 876.677,1062.51 898.5,1055.5 Z M 894.5,1061.5 C 897.518,1061.34 900.518,1061.5 903.5,1062C 902.847,1078.69 895.347,1091.53 881,1100.5C 878.026,1098.09 876.859,1094.92 877.5,1091C 878.171,1078.14 883.838,1068.31 894.5,1061.5 Z"/></g>
<g><path style="opacity:0.846" fill="#221f1f" d="M 1117.5,1055.5 C 1119.72,1055.18 1121.56,1055.84 1123,1057.5C 1124.2,1067.78 1124.87,1078.12 1125,1088.5C 1132.36,1077.97 1139.53,1067.3 1146.5,1056.5C 1148.05,1055.55 1149.71,1055.21 1151.5,1055.5C 1151.52,1068.86 1151.36,1082.19 1151,1095.5C 1157.44,1088.4 1163.1,1080.73 1168,1072.5C 1168.5,1071 1169,1069.5 1169.5,1068C 1168.08,1065.5 1166.58,1063.33 1165,1061.5C 1166.83,1059.67 1168.67,1057.83 1170.5,1056C 1173.52,1055.43 1175.68,1056.59 1177,1059.5C 1177.67,1062.83 1177.67,1066.17 1177,1069.5C 1175.19,1073.8 1172.85,1077.8 1170,1081.5C 1162.85,1090.28 1155.35,1098.78 1147.5,1107C 1145.53,1107.5 1143.53,1107.66 1141.5,1107.5C 1142.5,1095.85 1142.67,1084.18 1142,1072.5C 1134.56,1084.27 1126.72,1095.77 1118.5,1107C 1117.21,1107.49 1115.87,1107.66 1114.5,1107.5C 1115.41,1094.18 1115.58,1080.84 1115,1067.5C 1114.69,1066.69 1114.19,1066.03 1113.5,1065.5C 1110.99,1066.92 1108.66,1068.59 1106.5,1070.5C 1105.17,1069.83 1104.17,1068.83 1103.5,1067.5C 1107.89,1063.1 1112.56,1059.1 1117.5,1055.5 Z"/></g>
<g><path style="opacity:0.844" fill="#221f1f" d="M 1209.5,1055.5 C 1215.53,1055.43 1221.53,1055.76 1227.5,1056.5C 1223.11,1069.33 1219.11,1082.33 1215.5,1095.5C 1215.83,1096.17 1216.17,1096.83 1216.5,1097.5C 1219.27,1095.7 1222.1,1094.03 1225,1092.5C 1226.17,1093.01 1227,1093.84 1227.5,1095C 1221.7,1102.06 1214.37,1106.23 1205.5,1107.5C 1205.57,1103.44 1205.73,1099.44 1206,1095.5C 1202.09,1100.08 1197.59,1103.92 1192.5,1107C 1185.71,1109.28 1181.21,1107.11 1179,1100.5C 1177.51,1077.51 1187.68,1062.51 1209.5,1055.5 Z M 1205.5,1061.5 C 1208.78,1061.22 1211.94,1061.55 1215,1062.5C 1213.7,1074.1 1209.37,1084.43 1202,1093.5C 1198.94,1096.22 1195.61,1098.56 1192,1100.5C 1189.03,1098.09 1187.86,1094.92 1188.5,1091C 1189.17,1078.14 1194.84,1068.31 1205.5,1061.5 Z"/></g>
<g><path style="opacity:0.386" fill="#4b2f64" d="M 1391.5,1055.5 C 1392.5,1055.5 1393.5,1055.5 1394.5,1055.5C 1392.52,1063.18 1391.52,1063.18 1391.5,1055.5 Z"/></g>
<g><path style="opacity:0.842" fill="#221f1f" d="M 1420.5,1055.5 C 1424.51,1055.33 1428.51,1055.5 1432.5,1056C 1434.94,1056.04 1436.94,1056.87 1438.5,1058.5C 1432.14,1070.89 1428.47,1083.89 1427.5,1097.5C 1430.17,1095.83 1432.83,1094.17 1435.5,1092.5C 1437.28,1093.35 1437.78,1094.68 1437,1096.5C 1432.61,1100.61 1427.78,1104.11 1422.5,1107C 1420.23,1107.76 1418.06,1107.59 1416,1106.5C 1415.87,1102.74 1416.2,1099.07 1417,1095.5C 1413.09,1100.08 1408.59,1103.92 1403.5,1107C 1399.71,1107.84 1396.04,1107.5 1392.5,1106C 1387.39,1096.2 1387.56,1086.37 1393,1076.5C 1399.23,1065.49 1408.4,1058.49 1420.5,1055.5 Z M 1416.5,1061.5 C 1419.52,1061.34 1422.52,1061.5 1425.5,1062C 1424.62,1078.59 1417.12,1091.42 1403,1100.5C 1399.82,1098.67 1398.32,1095.83 1398.5,1092C 1399.3,1078.54 1405.3,1068.37 1416.5,1061.5 Z"/></g>
<g><path style="opacity:0.845" fill="#221f1f" d="M 1460.5,1055.5 C 1464.24,1054.74 1465.91,1056.24 1465.5,1060C 1464.3,1064.92 1463.13,1069.75 1462,1074.5C 1467.2,1068.97 1472.7,1063.8 1478.5,1059C 1481.74,1057.03 1485.24,1055.87 1489,1055.5C 1491.03,1055.35 1492.7,1056.02 1494,1057.5C 1494.67,1060.17 1494.67,1062.83 1494,1065.5C 1490.63,1075.27 1487.46,1085.11 1484.5,1095C 1484.83,1095.83 1485.17,1096.67 1485.5,1097.5C 1488.17,1095.83 1490.83,1094.17 1493.5,1092.5C 1495.28,1093.35 1495.78,1094.68 1495,1096.5C 1490.73,1100.77 1485.89,1104.27 1480.5,1107C 1477.85,1107.5 1475.19,1107.66 1472.5,1107.5C 1472.34,1104.81 1472.5,1102.15 1473,1099.5C 1476.99,1088.36 1480.82,1077.19 1484.5,1066C 1483.89,1065.13 1483.06,1064.63 1482,1064.5C 1466.22,1073.79 1456.39,1087.46 1452.5,1105.5C 1449.5,1106.25 1446.5,1106.91 1443.5,1107.5C 1443.17,1106.83 1442.83,1106.17 1442.5,1105.5C 1446.6,1093.03 1450.6,1080.53 1454.5,1068C 1454.17,1067.5 1453.83,1067 1453.5,1066.5C 1450.89,1067.78 1448.55,1069.45 1446.5,1071.5C 1445.17,1070.83 1444.17,1069.83 1443.5,1068.5C 1448.33,1062.99 1454,1058.66 1460.5,1055.5 Z"/></g>
<g><path style="opacity:0.834" fill="#221f1f" d="M 1519.5,1055.5 C 1522.04,1055.15 1524.04,1055.98 1525.5,1058C 1521.57,1071.11 1517.24,1084.11 1512.5,1097C 1512.67,1097.5 1512.83,1098 1513,1098.5C 1516.3,1096.7 1519.47,1094.7 1522.5,1092.5C 1523.65,1093.14 1524.65,1093.98 1525.5,1095C 1520.73,1099.77 1515.4,1103.77 1509.5,1107C 1507.17,1107.67 1504.83,1107.67 1502.5,1107C 1501.45,1103.85 1501.62,1100.69 1503,1097.5C 1507.17,1087 1510.5,1076.33 1513,1065.5C 1510.36,1067.31 1507.86,1069.31 1505.5,1071.5C 1504.28,1071.11 1503.61,1070.28 1503.5,1069C 1507.88,1063.32 1513.21,1058.82 1519.5,1055.5 Z"/></g>
<g><path style="opacity:0.844" fill="#221f1f" d="M 1593.5,1055.5 C 1599.53,1055.43 1605.53,1055.76 1611.5,1056.5C 1607.11,1069.34 1603.11,1082.34 1599.5,1095.5C 1599.81,1096.31 1600.31,1096.97 1601,1097.5C 1603.51,1095.58 1606.18,1093.91 1609,1092.5C 1610.17,1093.01 1611,1093.84 1611.5,1095C 1605.7,1102.06 1598.37,1106.23 1589.5,1107.5C 1589.68,1103.46 1589.84,1099.46 1590,1095.5C 1586.09,1100.08 1581.59,1103.92 1576.5,1107C 1569.71,1109.28 1565.21,1107.11 1563,1100.5C 1561.52,1077.5 1571.69,1062.5 1593.5,1055.5 Z M 1589.5,1061.5 C 1593.31,1061.16 1596.97,1061.66 1600.5,1063C 1597.87,1070.56 1595.03,1078.06 1592,1085.5C 1588.28,1092.22 1582.95,1097.22 1576,1100.5C 1573.05,1098.27 1571.88,1095.27 1572.5,1091.5C 1573.03,1078.43 1578.7,1068.43 1589.5,1061.5 Z"/></g>
<g><path style="opacity:0.85" fill="#231f20" d="M 1734.5,1055.5 C 1740.53,1055.43 1746.53,1055.76 1752.5,1056.5C 1748.11,1069.34 1744.11,1082.34 1740.5,1095.5C 1740.81,1096.31 1741.31,1096.97 1742,1097.5C 1744.85,1096.08 1747.52,1094.41 1750,1092.5C 1751.17,1093.01 1752,1093.84 1752.5,1095C 1746.7,1102.06 1739.37,1106.23 1730.5,1107.5C 1730.68,1103.46 1730.84,1099.46 1731,1095.5C 1727.09,1100.08 1722.59,1103.92 1717.5,1107C 1710.75,1109.27 1706.25,1107.11 1704,1100.5C 1702.55,1077.47 1712.72,1062.47 1734.5,1055.5 Z M 1731.5,1061.5 C 1734.98,1061.18 1738.31,1061.68 1741.5,1063C 1738.87,1070.56 1736.03,1078.06 1733,1085.5C 1729.28,1092.22 1723.95,1097.22 1717,1100.5C 1716,1099.5 1715,1098.5 1714,1097.5C 1712.28,1084.67 1716.11,1073.84 1725.5,1065C 1726.09,1064.54 1726.76,1064.37 1727.5,1064.5C 1729.97,1064.91 1731.31,1063.91 1731.5,1061.5 Z"/></g>
<g><path style="opacity:0.846" fill="#221f1f" d="M 1838.5,1055.5 C 1844.53,1055.43 1850.53,1055.76 1856.5,1056.5C 1852.11,1069.34 1848.11,1082.34 1844.5,1095.5C 1844.81,1096.31 1845.31,1096.97 1846,1097.5C 1848.85,1096.08 1851.52,1094.41 1854,1092.5C 1855.17,1093.01 1856,1093.84 1856.5,1095C 1850.7,1102.06 1843.37,1106.23 1834.5,1107.5C 1834.68,1103.46 1834.84,1099.46 1835,1095.5C 1831.09,1100.08 1826.59,1103.92 1821.5,1107C 1814.75,1109.27 1810.25,1107.11 1808,1100.5C 1806.52,1077.5 1816.69,1062.5 1838.5,1055.5 Z M 1835.5,1061.5 C 1838.98,1061.18 1842.31,1061.68 1845.5,1063C 1843.14,1069.07 1840.97,1075.24 1839,1081.5C 1835.39,1090.11 1829.39,1096.44 1821,1100.5C 1818.05,1098.27 1816.88,1095.27 1817.5,1091.5C 1817.94,1077.92 1823.94,1067.92 1835.5,1061.5 Z"/></g>
<g><path style="opacity:0.981" fill="#d23e82" d="M 235.5,1057.5 C 242.958,1057.24 248.458,1060.24 252,1066.5C 251.834,1073.33 249.834,1079.67 246,1085.5C 234.698,1101.8 220.531,1114.97 203.5,1125C 199.292,1125.14 196.125,1123.31 194,1119.5C 189.786,1111.74 186.119,1103.74 183,1095.5C 181.16,1087.34 183.66,1080.84 190.5,1076C 193.5,1074.33 196.5,1072.67 199.5,1071C 211.638,1066.57 223.638,1062.07 235.5,1057.5 Z"/></g>
<g><path style="opacity:0.473" fill="#f1eff0" d="M 1731.5,1061.5 C 1731.31,1063.91 1729.97,1064.91 1727.5,1064.5C 1728.03,1062.55 1729.37,1061.55 1731.5,1061.5 Z"/></g>
<g><path style="opacity:0.852" fill="#221f1f" d="M 553.5,1113.5 C 555.484,1113.48 556.484,1114.48 556.5,1116.5C 551.701,1129.4 547.534,1142.4 544,1155.5C 547.5,1152 551,1148.5 554.5,1145C 566.819,1139.3 572.819,1143.3 572.5,1157C 571.146,1178.35 559.979,1190.85 539,1194.5C 528.118,1195.08 524.118,1190.08 527,1179.5C 532.168,1162 537.334,1144.5 542.5,1127C 542.612,1125.34 541.946,1124.17 540.5,1123.5C 538.929,1124.31 537.262,1124.64 535.5,1124.5C 535.286,1122.86 535.62,1121.36 536.5,1120C 542.607,1118.69 548.274,1116.52 553.5,1113.5 Z M 556.5,1150.5 C 559.86,1149.79 561.693,1151.12 562,1154.5C 563.511,1166.97 559.677,1177.47 550.5,1186C 537.055,1191.22 532.888,1187.06 538,1173.5C 542.277,1164.26 548.443,1156.59 556.5,1150.5 Z"/></g>
<g><path style="opacity:0.852" fill="#221f1f" d="M 658.5,1113.5 C 660.346,1113.22 661.68,1113.89 662.5,1115.5C 656.404,1130.62 651.238,1145.95 647,1161.5C 652.081,1155.21 657.915,1149.71 664.5,1145C 669.179,1142.52 674.012,1142.02 679,1143.5C 679.667,1146.5 679.667,1149.5 679,1152.5C 675.358,1163.08 672.358,1173.75 670,1184.5C 672.851,1183.08 675.518,1181.41 678,1179.5C 679.5,1179.67 680.333,1180.5 680.5,1182C 675.538,1188.15 669.205,1192.32 661.5,1194.5C 658.5,1194.83 657.167,1193.5 657.5,1190.5C 661.195,1177.91 665.195,1165.41 669.5,1153C 669.387,1151.72 668.72,1150.89 667.5,1150.5C 651.816,1159.83 641.983,1173.5 638,1191.5C 634.77,1193.69 631.27,1194.02 627.5,1192.5C 634.702,1170.23 641.702,1147.89 648.5,1125.5C 648.113,1124.28 647.28,1123.61 646,1123.5C 644.234,1124.23 642.401,1124.57 640.5,1124.5C 640.286,1122.86 640.62,1121.36 641.5,1120C 647.607,1118.69 653.274,1116.52 658.5,1113.5 Z"/></g>
<g><path style="opacity:0.844" fill="#221f1f" d="M 1190.5,1113.5 C 1195.66,1112.89 1200.32,1114.06 1204.5,1117C 1203,1120 1202,1123.17 1201.5,1126.5C 1199.83,1126.5 1198.17,1126.5 1196.5,1126.5C 1195.66,1119.55 1192,1117.71 1185.5,1121C 1180.82,1127.69 1177.49,1135.02 1175.5,1143C 1179.49,1143.5 1183.49,1143.67 1187.5,1143.5C 1187.53,1145.58 1186.86,1147.42 1185.5,1149C 1181.55,1149.18 1177.72,1149.34 1174,1149.5C 1171,1160.5 1168,1171.5 1165,1182.5C 1162.78,1190.48 1159.78,1198.15 1156,1205.5C 1151.26,1211.24 1145.26,1214.91 1138,1216.5C 1128.1,1215.38 1126.93,1211.71 1134.5,1205.5C 1136.86,1207.01 1139.36,1208.35 1142,1209.5C 1146.72,1207.78 1149.72,1204.44 1151,1199.5C 1155.9,1182.74 1160.4,1165.91 1164.5,1149C 1162.19,1148.5 1159.86,1148.34 1157.5,1148.5C 1157.28,1147.32 1157.61,1146.32 1158.5,1145.5C 1161.06,1144.59 1163.56,1143.59 1166,1142.5C 1168.61,1127.85 1176.78,1118.18 1190.5,1113.5 Z"/></g>
<g><path style="opacity:0.845" fill="#221f1f" d="M 1222.5,1113.5 C 1227.36,1113 1231.86,1114 1236,1116.5C 1235.1,1119.72 1234.27,1123.05 1233.5,1126.5C 1232.13,1126.66 1230.79,1126.49 1229.5,1126C 1227.59,1119.56 1223.59,1117.89 1217.5,1121C 1216.21,1122.41 1215.05,1123.91 1214,1125.5C 1211.68,1131.3 1209.51,1137.14 1207.5,1143C 1211.87,1143.17 1216.2,1143.67 1220.5,1144.5C 1219.38,1145.91 1218.38,1147.41 1217.5,1149C 1213.55,1149.18 1209.72,1149.34 1206,1149.5C 1201.67,1167.49 1196.34,1185.15 1190,1202.5C 1185.24,1209.88 1178.57,1214.55 1170,1216.5C 1159.82,1215.16 1158.82,1211.49 1167,1205.5C 1169.08,1207.23 1171.41,1208.57 1174,1209.5C 1178.72,1207.78 1181.72,1204.44 1183,1199.5C 1187.81,1182.92 1192.31,1166.25 1196.5,1149.5C 1194.26,1148.53 1191.92,1148.19 1189.5,1148.5C 1189.28,1147.32 1189.61,1146.32 1190.5,1145.5C 1193.06,1144.59 1195.56,1143.59 1198,1142.5C 1200.67,1128.01 1208.84,1118.34 1222.5,1113.5 Z"/></g>
<g><path style="opacity:0.869" fill="#221f1f" d="M 445.5,1116.5 C 451.176,1116.33 456.843,1116.5 462.5,1117C 466.928,1117.7 470.928,1119.36 474.5,1122C 472.294,1127.32 470.627,1132.82 469.5,1138.5C 467.955,1139.45 466.288,1139.79 464.5,1139.5C 465.463,1123.64 458.463,1118.48 443.5,1124C 437.962,1128.39 437.129,1133.56 441,1139.5C 446.667,1145.17 452.333,1150.83 458,1156.5C 467.144,1171.09 464.311,1182.92 449.5,1192C 436.441,1197.31 424.108,1196.14 412.5,1188.5C 414.798,1182.31 416.632,1175.97 418,1169.5C 419.699,1168.59 421.533,1168.26 423.5,1168.5C 421.773,1183.94 428.44,1190.11 443.5,1187C 451.758,1181.18 453.591,1173.68 449,1164.5C 443.054,1158.55 437.054,1152.55 431,1146.5C 424.805,1135.66 426.972,1126.82 437.5,1120C 440.309,1118.91 442.976,1117.74 445.5,1116.5 Z"/></g>
<g><path style="opacity:0.853" fill="#221f1f" d="M 1134.5,1116.5 C 1136.6,1116.2 1138.6,1116.53 1140.5,1117.5C 1137.23,1140.41 1135.56,1163.41 1135.5,1186.5C 1138.07,1187.63 1140.74,1188.47 1143.5,1189C 1145.59,1189.95 1145.93,1191.29 1144.5,1193C 1142.17,1193.17 1139.83,1193.33 1137.5,1193.5C 1128.62,1193.53 1119.62,1193.2 1110.5,1192.5C 1111.04,1191.25 1111.71,1190.09 1112.5,1189C 1115.9,1188.42 1119.07,1187.26 1122,1185.5C 1123.8,1180.34 1124.64,1175 1124.5,1169.5C 1117.16,1169.33 1109.83,1169.5 1102.5,1170C 1098.17,1175.67 1093.83,1181.33 1089.5,1187C 1091.29,1188.16 1093.29,1188.83 1095.5,1189C 1096.38,1190.36 1096.71,1191.86 1096.5,1193.5C 1087.5,1193.5 1078.5,1193.5 1069.5,1193.5C 1069.33,1192.18 1069.66,1191.01 1070.5,1190C 1075.59,1188.98 1079.75,1186.48 1083,1182.5C 1100.9,1161.01 1118.07,1139.01 1134.5,1116.5 Z M 1127.5,1136.5 C 1128.14,1137.1 1128.47,1137.93 1128.5,1139C 1127.39,1147.16 1126.39,1155.33 1125.5,1163.5C 1119.49,1163.67 1113.49,1163.5 1107.5,1163C 1114.38,1154.29 1121.05,1145.46 1127.5,1136.5 Z"/></g>
<g><path style="opacity:0.863" fill="#221f1f" d="M 725.5,1117.5 C 737.193,1118.46 748.859,1118.79 760.5,1118.5C 759.96,1119.75 759.293,1120.91 758.5,1122C 755.363,1122.6 752.363,1123.6 749.5,1125C 748.874,1125.75 748.374,1126.58 748,1127.5C 745.55,1142.8 743.883,1158.13 743,1173.5C 752.756,1159.66 762.756,1145.99 773,1132.5C 773.818,1129.77 773.652,1127.11 772.5,1124.5C 769.55,1123.51 766.55,1122.68 763.5,1122C 762.289,1120.89 762.289,1119.72 763.5,1118.5C 774.792,1118.76 786.125,1118.43 797.5,1117.5C 797.703,1119.39 797.037,1120.89 795.5,1122C 792.363,1122.6 789.363,1123.6 786.5,1125C 785.809,1126.07 785.309,1127.23 785,1128.5C 782.929,1143.13 781.596,1157.8 781,1172.5C 792.361,1156.64 803.528,1140.64 814.5,1124.5C 812.78,1123.07 810.78,1122.23 808.5,1122C 807.62,1120.64 807.286,1119.14 807.5,1117.5C 816.497,1118.79 825.497,1118.79 834.5,1117.5C 834.703,1119.39 834.037,1120.89 832.5,1122C 829.624,1122.44 826.957,1123.44 824.5,1125C 806.923,1148.15 789.59,1171.49 772.5,1195C 771.207,1195.49 769.873,1195.66 768.5,1195.5C 769.615,1178.46 770.781,1161.46 772,1144.5C 760,1161.17 748,1177.83 736,1194.5C 734.301,1195.41 732.467,1195.74 730.5,1195.5C 733.119,1171.97 734.785,1148.47 735.5,1125C 732.392,1123.24 729.059,1122.41 725.5,1122.5C 725.5,1120.83 725.5,1119.17 725.5,1117.5 Z"/></g>
<g><path style="opacity:0.872" fill="#221f1f" d="M 1412.5,1117.5 C 1427.49,1118.29 1442.49,1118.45 1457.5,1118C 1468.86,1119.05 1476.36,1124.88 1480,1135.5C 1482.51,1161.65 1471.67,1179.82 1447.5,1190C 1443.28,1191.47 1438.94,1192.47 1434.5,1193C 1420.36,1193.19 1406.36,1193.36 1392.5,1193.5C 1392.3,1191.61 1392.96,1190.11 1394.5,1189C 1398.63,1188.85 1402.13,1187.35 1405,1184.5C 1410.97,1165.94 1416.64,1147.27 1422,1128.5C 1422.67,1127.17 1422.67,1125.83 1422,1124.5C 1419.26,1123.44 1416.43,1122.61 1413.5,1122C 1412.62,1120.64 1412.29,1119.14 1412.5,1117.5 Z M 1438.5,1123.5 C 1463.43,1121.92 1472.93,1133.26 1467,1157.5C 1458.17,1181.16 1441.34,1190.66 1416.5,1186C 1422.12,1166.13 1427.95,1146.3 1434,1126.5C 1435.31,1125.1 1436.81,1124.1 1438.5,1123.5 Z"/></g>
<g><path style="opacity:0.844" fill="#221f1f" d="M 1288.5,1119.5 C 1296.06,1118.09 1298.56,1121.09 1296,1128.5C 1293.35,1132.76 1290.02,1133.43 1286,1130.5C 1284.81,1126.26 1285.65,1122.59 1288.5,1119.5 Z"/></g>
<g><path style="opacity:0.833" fill="#221f1f" d="M 1691.5,1130.5 C 1693.2,1130.34 1694.87,1130.51 1696.5,1131C 1695.03,1135.08 1693.36,1139.08 1691.5,1143C 1695.82,1143.5 1700.15,1143.67 1704.5,1143.5C 1704.62,1145.48 1703.95,1147.15 1702.5,1148.5C 1698.17,1149.17 1693.83,1149.83 1689.5,1150.5C 1685.68,1161.63 1682.68,1172.97 1680.5,1184.5C 1684.71,1183.06 1688.71,1181.06 1692.5,1178.5C 1693.72,1178.89 1694.39,1179.72 1694.5,1181C 1690.03,1186.79 1684.36,1191.12 1677.5,1194C 1673.27,1195.5 1670.27,1194.33 1668.5,1190.5C 1672.3,1177.11 1676.3,1163.78 1680.5,1150.5C 1678.26,1149.53 1675.92,1149.19 1673.5,1149.5C 1673.42,1148.07 1673.75,1146.74 1674.5,1145.5C 1681.74,1142.26 1687.41,1137.26 1691.5,1130.5 Z"/></g>
<g><path style="opacity:0.837" fill="#221f1f" d="M 1908.5,1130.5 C 1910.2,1130.34 1911.87,1130.51 1913.5,1131C 1912.03,1135.08 1910.36,1139.08 1908.5,1143C 1912.82,1143.5 1917.15,1143.67 1921.5,1143.5C 1921.62,1145.48 1920.95,1147.15 1919.5,1148.5C 1915.22,1149.49 1910.88,1149.83 1906.5,1149.5C 1902.88,1161.01 1899.88,1172.68 1897.5,1184.5C 1901.71,1183.06 1905.71,1181.06 1909.5,1178.5C 1910.72,1178.89 1911.39,1179.72 1911.5,1181C 1907.03,1186.79 1901.36,1191.12 1894.5,1194C 1891.9,1194.77 1889.4,1194.6 1887,1193.5C 1886.33,1190.5 1886.33,1187.5 1887,1184.5C 1890.81,1172.9 1894.31,1161.24 1897.5,1149.5C 1895.17,1149.5 1892.83,1149.5 1890.5,1149.5C 1890.42,1148.07 1890.75,1146.74 1891.5,1145.5C 1898.74,1142.26 1904.41,1137.26 1908.5,1130.5 Z"/></g>
<g><path style="opacity:0.842" fill="#221f1f" d="M 500.5,1142.5 C 506.842,1142.33 513.175,1142.5 519.5,1143C 520.167,1143.67 520.833,1144.33 521.5,1145C 515.385,1157.18 511.385,1170.01 509.5,1183.5C 512.809,1182.76 515.643,1181.09 518,1178.5C 519.678,1179.47 520.345,1180.8 520,1182.5C 515.048,1188.13 509.048,1192.13 502,1194.5C 500.893,1194.41 499.893,1194.08 499,1193.5C 498.502,1189.35 498.836,1185.35 500,1181.5C 495.678,1186.83 490.512,1191 484.5,1194C 478.131,1195.32 473.964,1192.82 472,1186.5C 470.805,1164.87 480.305,1150.2 500.5,1142.5 Z M 501.5,1147.5 C 504.321,1147.54 506.988,1148.21 509.5,1149.5C 507.101,1163.81 500.434,1175.64 489.5,1185C 483.748,1187.13 481.081,1184.97 481.5,1178.5C 481.943,1163.9 488.61,1153.57 501.5,1147.5 Z"/></g>
<g><path style="opacity:0.843" fill="#221f1f" d="M 604.5,1142.5 C 610.842,1142.33 617.175,1142.5 623.5,1143C 624.167,1143.67 624.833,1144.33 625.5,1145C 619.973,1156.91 615.64,1169.25 612.5,1182C 613.593,1183.37 614.926,1183.7 616.5,1183C 618.609,1181.86 620.442,1180.36 622,1178.5C 623.022,1179.35 623.855,1180.35 624.5,1181.5C 619.907,1186.59 614.574,1190.76 608.5,1194C 606.559,1194.74 604.726,1194.58 603,1193.5C 602.722,1189.81 602.722,1186.14 603,1182.5C 599.466,1186.37 595.633,1189.87 591.5,1193C 583.792,1196.58 578.625,1194.42 576,1186.5C 574.798,1164.87 584.298,1150.21 604.5,1142.5 Z M 605.5,1147.5 C 608.321,1147.54 610.988,1148.21 613.5,1149.5C 610.871,1158.56 607.371,1167.23 603,1175.5C 599.833,1178.67 596.667,1181.83 593.5,1185C 587.166,1187.48 584.499,1185.15 585.5,1178C 586.097,1163.62 592.764,1153.45 605.5,1147.5 Z"/></g>
<g><path style="opacity:0.855" fill="#221f1f" d="M 840.5,1142.5 C 854.209,1140.54 861.209,1146.54 861.5,1160.5C 860.103,1175.8 852.437,1186.63 838.5,1193C 823.781,1197.46 816.115,1191.96 815.5,1176.5C 816.996,1160.02 825.33,1148.69 840.5,1142.5 Z M 841.5,1147.5 C 847.388,1147.55 850.555,1150.55 851,1156.5C 851.952,1166.36 849.619,1175.36 844,1183.5C 839.155,1189.09 833.822,1189.76 828,1185.5C 824.631,1174.98 825.965,1164.98 832,1155.5C 834.478,1151.84 837.644,1149.18 841.5,1147.5 Z"/></g>
<g><path style="opacity:0.842" fill="#221f1f" d="M 881.5,1142.5 C 883.527,1142.34 885.527,1142.5 887.5,1143C 888.059,1143.72 888.392,1144.56 888.5,1145.5C 886.662,1150.83 885.162,1156.17 884,1161.5C 890.337,1153.82 897.837,1147.66 906.5,1143C 909.429,1142.22 912.263,1142.39 915,1143.5C 915.583,1149.71 914.916,1155.71 913,1161.5C 918.256,1154.24 924.756,1148.41 932.5,1144C 936.658,1142.35 940.825,1142.18 945,1143.5C 945.667,1146.17 945.667,1148.83 945,1151.5C 941.832,1161.67 938.666,1171.84 935.5,1182C 935.667,1182.83 935.833,1183.67 936,1184.5C 938.851,1183.08 941.518,1181.41 944,1179.5C 947.137,1180.94 947.303,1182.78 944.5,1185C 940.173,1188.5 935.506,1191.5 930.5,1194C 923.923,1195.59 921.756,1193.09 924,1186.5C 927.738,1175.12 931.572,1163.79 935.5,1152.5C 935.167,1151.5 934.5,1150.83 933.5,1150.5C 917.748,1160.3 907.581,1174.3 903,1192.5C 899.943,1193.45 896.777,1193.78 893.5,1193.5C 898.11,1179.67 902.11,1165.67 905.5,1151.5C 902.774,1151.26 900.441,1152.1 898.5,1154C 886.249,1163.66 878.416,1176.16 875,1191.5C 871.77,1193.69 868.27,1194.02 864.5,1192.5C 869.003,1180.16 873.003,1167.66 876.5,1155C 876.333,1154.17 876.167,1153.33 876,1152.5C 873.356,1154.31 870.856,1156.31 868.5,1158.5C 867.167,1157.83 866.167,1156.83 865.5,1155.5C 870.273,1150.39 875.606,1146.05 881.5,1142.5 Z"/></g>
<g><path style="opacity:0.829" fill="#231f20" d="M 953.5,1191.5 C 953.598,1189.45 952.931,1187.78 951.5,1186.5C 949.561,1165.62 958.227,1151.12 977.5,1143C 991.513,1139.67 995.679,1144.5 990,1157.5C 982.288,1165.58 972.788,1169.91 961.5,1170.5C 961.334,1174.85 961.501,1179.18 962,1183.5C 962.374,1184.42 962.874,1185.25 963.5,1186C 970.361,1186.41 976.361,1184.24 981.5,1179.5C 983.046,1180.21 984.046,1181.38 984.5,1183C 977.437,1190.53 968.77,1194.2 958.5,1194C 956.548,1193.63 954.882,1192.8 953.5,1191.5 Z M 977.5,1147.5 C 979.467,1147.26 981.301,1147.59 983,1148.5C 982.709,1155.48 979.209,1160.32 972.5,1163C 969.509,1164.52 966.509,1165.02 963.5,1164.5C 966.069,1156.98 970.736,1151.32 977.5,1147.5 Z"/></g>
<g><path style="opacity:0.841" fill="#221f1f" d="M 1009.5,1142.5 C 1011.53,1142.34 1013.53,1142.5 1015.5,1143C 1016.06,1143.72 1016.39,1144.56 1016.5,1145.5C 1015.06,1150.97 1013.56,1156.3 1012,1161.5C 1017.76,1154.87 1024.26,1149.03 1031.5,1144C 1035.41,1142.57 1039.41,1142.23 1043.5,1143C 1045.19,1144.91 1045.69,1147.08 1045,1149.5C 1041.03,1161.08 1037.69,1172.75 1035,1184.5C 1037.85,1183.08 1040.52,1181.41 1043,1179.5C 1044.43,1179.93 1045.6,1180.76 1046.5,1182C 1042.12,1186.05 1037.45,1189.71 1032.5,1193C 1029.59,1194.32 1026.59,1194.65 1023.5,1194C 1022.9,1192.94 1022.57,1191.77 1022.5,1190.5C 1026.2,1177.9 1030.2,1165.4 1034.5,1153C 1034.39,1151.72 1033.72,1150.89 1032.5,1150.5C 1016.73,1160.29 1006.73,1174.29 1002.5,1192.5C 999.167,1193.83 995.833,1193.83 992.5,1192.5C 997.684,1179.46 1001.52,1166.13 1004,1152.5C 1001.36,1154.31 998.856,1156.31 996.5,1158.5C 994.616,1157.31 994.116,1155.64 995,1153.5C 999.45,1149.2 1004.28,1145.54 1009.5,1142.5 Z"/></g>
<g><path style="opacity:0.845" fill="#231f20" d="M 1234.5,1187.5 C 1232.5,1187.5 1231.5,1188.5 1231.5,1190.5C 1227.34,1193.75 1222.68,1194.91 1217.5,1194C 1215.67,1192.83 1214.17,1191.33 1213,1189.5C 1209.65,1166.72 1218.81,1151.22 1240.5,1143C 1246.83,1142.33 1253.17,1142.33 1259.5,1143C 1260.17,1143.67 1260.83,1144.33 1261.5,1145C 1255.97,1156.91 1251.64,1169.25 1248.5,1182C 1249.59,1183.37 1250.93,1183.7 1252.5,1183C 1254.24,1181.38 1256.07,1179.88 1258,1178.5C 1259.68,1179.47 1260.34,1180.8 1260,1182.5C 1254.7,1187.9 1248.53,1191.9 1241.5,1194.5C 1240.56,1194.39 1239.72,1194.06 1239,1193.5C 1238.72,1189.81 1238.72,1186.14 1239,1182.5C 1237.29,1184.04 1235.79,1185.7 1234.5,1187.5 Z M 1241.5,1147.5 C 1244.32,1147.54 1246.99,1148.21 1249.5,1149.5C 1246.87,1158.56 1243.37,1167.23 1239,1175.5C 1235.47,1179.37 1231.63,1182.87 1227.5,1186C 1226.17,1186.67 1224.83,1186.67 1223.5,1186C 1219.88,1172.2 1223.54,1160.53 1234.5,1151C 1236.93,1149.79 1239.26,1148.62 1241.5,1147.5 Z"/></g>
<g><path style="opacity:0.838" fill="#221f1f" d="M 1283.5,1142.5 C 1285.5,1142.5 1287.5,1142.5 1289.5,1142.5C 1289.66,1144.86 1289.5,1147.19 1289,1149.5C 1285.26,1160.88 1281.43,1172.21 1277.5,1183.5C 1277.83,1183.83 1278.17,1184.17 1278.5,1184.5C 1281.27,1182.7 1284.1,1181.03 1287,1179.5C 1289.19,1180.06 1289.85,1181.39 1289,1183.5C 1283.65,1188.59 1277.49,1192.25 1270.5,1194.5C 1267.67,1194.36 1266.34,1192.86 1266.5,1190C 1270.21,1177.92 1274.21,1165.92 1278.5,1154C 1278.15,1152.74 1277.48,1152.41 1276.5,1153C 1274.65,1155.02 1272.65,1156.85 1270.5,1158.5C 1269.62,1157.24 1268.62,1156.07 1267.5,1155C 1272.45,1150.21 1277.78,1146.04 1283.5,1142.5 Z"/></g>
<g><path style="opacity:0.826" fill="#221f1f" d="M 1311.5,1142.5 C 1313.83,1142.5 1316.17,1142.5 1318.5,1142.5C 1317.61,1149.4 1316.11,1156.06 1314,1162.5C 1318.34,1155.32 1323.5,1148.82 1329.5,1143C 1333.03,1142.1 1336.37,1142.43 1339.5,1144C 1337.47,1146.9 1336.13,1150.06 1335.5,1153.5C 1330.91,1151.53 1327.07,1152.53 1324,1156.5C 1315.53,1167.6 1309.03,1179.77 1304.5,1193C 1301.45,1193.82 1298.45,1193.65 1295.5,1192.5C 1300.68,1179.46 1304.52,1166.13 1307,1152.5C 1304.33,1154.5 1301.67,1156.5 1299,1158.5C 1298.53,1157.07 1297.7,1155.9 1296.5,1155C 1301.4,1150.59 1306.4,1146.43 1311.5,1142.5 Z"/></g>
<g><path style="opacity:0.837" fill="#221f1f" d="M 1351.5,1142.5 C 1357.66,1142.03 1363.66,1142.7 1369.5,1144.5C 1370.22,1147.89 1369.72,1151.23 1368,1154.5C 1366.64,1155.38 1365.14,1155.71 1363.5,1155.5C 1362.7,1148.25 1358.7,1145.75 1351.5,1148C 1348.21,1150.33 1347.71,1153.17 1350,1156.5C 1355.41,1161.24 1360.08,1166.57 1364,1172.5C 1366.53,1183.93 1362.03,1191.1 1350.5,1194C 1342.61,1195.77 1335.61,1194.1 1329.5,1189C 1331.13,1186.25 1332.63,1183.41 1334,1180.5C 1335.01,1179.66 1336.18,1179.33 1337.5,1179.5C 1338.37,1185.38 1341.87,1188.38 1348,1188.5C 1355.75,1187.21 1357.75,1183.21 1354,1176.5C 1350.7,1172.2 1347.04,1168.2 1343,1164.5C 1337.65,1154.17 1340.49,1146.84 1351.5,1142.5 Z"/></g>
<g><path style="opacity:0.829" fill="#221f1f" d="M 1507.5,1142.5 C 1522.68,1140.85 1526.18,1146.52 1518,1159.5C 1510.31,1165.9 1501.48,1169.9 1491.5,1171.5C 1490.15,1175.87 1490.32,1180.21 1492,1184.5C 1493.15,1185.74 1494.49,1186.74 1496,1187.5C 1501.64,1185.76 1506.81,1183.1 1511.5,1179.5C 1512.84,1180.35 1513.84,1181.51 1514.5,1183C 1507.15,1190.84 1498.15,1194.51 1487.5,1194C 1483.83,1192.33 1481.67,1189.5 1481,1185.5C 1479.67,1164.82 1488.5,1150.49 1507.5,1142.5 Z M 1506.5,1147.5 C 1509.36,1147.06 1511.7,1147.9 1513.5,1150C 1510.25,1160.24 1503.59,1164.91 1493.5,1164C 1496.22,1157.13 1500.55,1151.63 1506.5,1147.5 Z"/></g>
<g><path style="opacity:0.849" fill="#221f1f" d="M 1539.5,1142.5 C 1541.5,1142.5 1543.5,1142.5 1545.5,1142.5C 1545.28,1146.61 1544.78,1150.61 1544,1154.5C 1547.97,1149.52 1552.8,1145.69 1558.5,1143C 1564.95,1140.82 1569.12,1142.99 1571,1149.5C 1573.35,1166.29 1567.85,1179.79 1554.5,1190C 1547.35,1194.65 1539.85,1195.48 1532,1192.5C 1530.34,1197.45 1528.84,1202.45 1527.5,1207.5C 1527.61,1208.44 1527.94,1209.28 1528.5,1210C 1530.81,1210.66 1533.15,1211.16 1535.5,1211.5C 1535.5,1212.83 1535.5,1214.17 1535.5,1215.5C 1526.17,1215.5 1516.83,1215.5 1507.5,1215.5C 1507.33,1214.18 1507.66,1213.01 1508.5,1212C 1513.85,1211.97 1517.35,1209.47 1519,1204.5C 1524.95,1187.35 1529.95,1170.01 1534,1152.5C 1531.31,1154.69 1528.47,1156.69 1525.5,1158.5C 1523.72,1157.65 1523.22,1156.32 1524,1154.5C 1528.78,1149.87 1533.95,1145.87 1539.5,1142.5 Z M 1555.5,1150.5 C 1557.14,1150.29 1558.64,1150.62 1560,1151.5C 1562.67,1161.83 1561.01,1171.5 1555,1180.5C 1550.07,1187.73 1543.57,1189.89 1535.5,1187C 1534.42,1185.27 1534.26,1183.44 1535,1181.5C 1538.36,1168.76 1545.19,1158.43 1555.5,1150.5 Z"/></g>
<g><path style="opacity:0.844" fill="#221f1f" d="M 1604.5,1142.5 C 1610.51,1142.33 1616.51,1142.5 1622.5,1143C 1623.43,1143.39 1624.09,1144.05 1624.5,1145C 1619.03,1157.38 1615.03,1170.21 1612.5,1183.5C 1616.23,1182.94 1619.4,1181.28 1622,1178.5C 1622.96,1179.58 1623.79,1180.75 1624.5,1182C 1618.77,1187.41 1612.27,1191.58 1605,1194.5C 1602.83,1194.33 1601.67,1193.16 1601.5,1191C 1602.53,1187.86 1603.03,1184.69 1603,1181.5C 1599.09,1186.71 1594.25,1190.88 1588.5,1194C 1578.9,1194.91 1574.24,1190.41 1574.5,1180.5C 1576.79,1161.56 1586.79,1148.89 1604.5,1142.5 Z M 1604.5,1147.5 C 1607.17,1147.83 1609.83,1148.17 1612.5,1148.5C 1610.54,1161.91 1604.87,1173.41 1595.5,1183C 1589.28,1188.59 1585.61,1187.26 1584.5,1179C 1585.36,1170.43 1588.19,1162.59 1593,1155.5C 1596.48,1152.16 1600.32,1149.49 1604.5,1147.5 Z"/></g>
<g><path style="opacity:0.823" fill="#221f1f" d="M 1644.5,1142.5 C 1646.83,1142.5 1649.17,1142.5 1651.5,1142.5C 1650.61,1148.63 1649.45,1154.63 1648,1160.5C 1651.76,1153.74 1656.59,1147.91 1662.5,1143C 1665.48,1142.5 1668.48,1142.34 1671.5,1142.5C 1670.64,1145.91 1669.47,1149.24 1668,1152.5C 1665.56,1153.27 1663.06,1153.44 1660.5,1153C 1650.04,1164.42 1642.54,1177.59 1638,1192.5C 1634.94,1193.45 1631.78,1193.78 1628.5,1193.5C 1632.49,1180.52 1636.49,1167.52 1640.5,1154.5C 1640.33,1153.83 1640.17,1153.17 1640,1152.5C 1637.15,1154.26 1634.49,1156.26 1632,1158.5C 1630.98,1157.65 1630.14,1156.65 1629.5,1155.5C 1633.97,1150.45 1638.97,1146.12 1644.5,1142.5 Z"/></g>
<g><path style="opacity:0.842" fill="#221f1f" d="M 1717.5,1142.5 C 1719.53,1142.34 1721.53,1142.5 1723.5,1143C 1724.06,1143.72 1724.39,1144.56 1724.5,1145.5C 1723.06,1150.97 1721.56,1156.3 1720,1161.5C 1726.34,1153.82 1733.84,1147.66 1742.5,1143C 1745.43,1142.22 1748.26,1142.39 1751,1143.5C 1751.58,1149.71 1750.92,1155.71 1749,1161.5C 1754.26,1154.24 1760.76,1148.41 1768.5,1144C 1772.66,1142.35 1776.83,1142.18 1781,1143.5C 1781.67,1146.17 1781.67,1148.83 1781,1151.5C 1777.83,1161.67 1774.67,1171.84 1771.5,1182C 1771.67,1182.83 1771.83,1183.67 1772,1184.5C 1774.85,1183.08 1777.52,1181.41 1780,1179.5C 1784.42,1180.93 1784.59,1182.76 1780.5,1185C 1776.17,1188.5 1771.51,1191.5 1766.5,1194C 1764.23,1194.76 1762.06,1194.59 1760,1193.5C 1759.45,1190.1 1759.79,1186.77 1761,1183.5C 1764.4,1173.12 1767.9,1162.79 1771.5,1152.5C 1771.19,1151.69 1770.69,1151.03 1770,1150.5C 1760.79,1155.04 1753.46,1161.7 1748,1170.5C 1744.41,1177.59 1741.41,1184.93 1739,1192.5C 1735.94,1193.45 1732.78,1193.78 1729.5,1193.5C 1734.11,1179.67 1738.11,1165.67 1741.5,1151.5C 1738.77,1151.26 1736.44,1152.1 1734.5,1154C 1722.25,1163.64 1714.42,1176.14 1711,1191.5C 1707.77,1193.69 1704.27,1194.02 1700.5,1192.5C 1705,1180.16 1709,1167.66 1712.5,1155C 1712.33,1154.17 1712.17,1153.33 1712,1152.5C 1709.36,1154.31 1706.86,1156.31 1704.5,1158.5C 1703.17,1157.83 1702.17,1156.83 1701.5,1155.5C 1706.27,1150.39 1711.61,1146.05 1717.5,1142.5 Z"/></g>
<g><path style="opacity:0.829" fill="#221f1f" d="M 1814.5,1142.5 C 1828.01,1140.2 1831.84,1145.2 1826,1157.5C 1818.28,1165.58 1808.78,1169.91 1797.5,1170.5C 1797.33,1174.85 1797.5,1179.18 1798,1183.5C 1798.37,1184.42 1798.87,1185.25 1799.5,1186C 1806.36,1186.41 1812.36,1184.24 1817.5,1179.5C 1819.05,1180.21 1820.05,1181.38 1820.5,1183C 1814.45,1189.19 1807.11,1193.03 1798.5,1194.5C 1795.24,1194.58 1792.41,1193.58 1790,1191.5C 1784.18,1173.94 1788.68,1159.44 1803.5,1148C 1807.02,1145.67 1810.68,1143.84 1814.5,1142.5 Z M 1813.5,1147.5 C 1815.2,1147.34 1816.87,1147.51 1818.5,1148C 1818.96,1155.26 1815.63,1160.26 1808.5,1163C 1805.51,1164.52 1802.51,1165.02 1799.5,1164.5C 1802.07,1156.98 1806.74,1151.32 1813.5,1147.5 Z"/></g>
<g><path style="opacity:0.844" fill="#221f1f" d="M 1845.5,1142.5 C 1847.53,1142.34 1849.53,1142.5 1851.5,1143C 1852.06,1143.72 1852.39,1144.56 1852.5,1145.5C 1850.86,1151.24 1849.36,1156.9 1848,1162.5C 1853.54,1155.29 1860.04,1149.13 1867.5,1144C 1871.41,1142.57 1875.41,1142.23 1879.5,1143C 1881.19,1144.91 1881.69,1147.08 1881,1149.5C 1877.03,1161.08 1873.69,1172.75 1871,1184.5C 1873.85,1183.08 1876.52,1181.41 1879,1179.5C 1880.43,1179.93 1881.6,1180.76 1882.5,1182C 1878.12,1186.05 1873.45,1189.71 1868.5,1193C 1865.59,1194.32 1862.59,1194.65 1859.5,1194C 1858.9,1192.94 1858.57,1191.77 1858.5,1190.5C 1862.2,1177.9 1866.2,1165.4 1870.5,1153C 1870.39,1151.72 1869.72,1150.89 1868.5,1150.5C 1852.73,1160.29 1842.73,1174.29 1838.5,1192.5C 1835.17,1193.83 1831.83,1193.83 1828.5,1192.5C 1833.68,1179.46 1837.52,1166.13 1840,1152.5C 1837.36,1154.31 1834.86,1156.31 1832.5,1158.5C 1830.62,1157.31 1830.12,1155.64 1831,1153.5C 1835.45,1149.2 1840.28,1145.54 1845.5,1142.5 Z"/></g>
<g><path style="opacity:0.981" fill="#d23a81" d="M 296.5,1180.5 C 306.056,1179.17 313.889,1182.17 320,1189.5C 354.036,1254.28 394.036,1314.95 440,1371.5C 484.675,1422.19 534.841,1466.36 590.5,1504C 623.844,1526.68 658.51,1547.35 694.5,1566C 704.904,1570.27 715.571,1571.6 726.5,1570C 722.646,1561.79 718.146,1553.96 713,1546.5C 692.49,1524.67 673.49,1501.67 656,1477.5C 635.476,1446.62 616.143,1414.96 598,1382.5C 593.5,1376.67 588.333,1371.5 582.5,1367C 534.432,1341.31 489.098,1311.65 446.5,1278C 428.674,1262.67 417.34,1243.51 412.5,1220.5C 414.527,1220.34 416.527,1220.5 418.5,1221C 422.447,1223.28 426.113,1225.95 429.5,1229C 432.531,1229.5 435.531,1229.33 438.5,1228.5C 437.994,1232.01 438.66,1235.17 440.5,1238C 466.043,1250.94 491.71,1263.61 517.5,1276C 527.731,1280.87 538.231,1285.03 549,1288.5C 551.975,1288.19 553.641,1286.53 554,1283.5C 556.463,1271.97 557.797,1260.31 558,1248.5C 558.273,1246.67 559.107,1245.17 560.5,1244C 573.515,1241.9 586.515,1242.23 599.5,1245C 606,1247.5 610.5,1252 613,1258.5C 617.917,1302.41 641.083,1331.91 682.5,1347C 741.726,1367.56 802.06,1384.22 863.5,1397C 929.02,1411.14 995.02,1422.48 1061.5,1431C 1111.44,1436.09 1161.44,1440.09 1211.5,1443C 1227.11,1440.28 1239.94,1432.78 1250,1420.5C 1287.63,1373.26 1321.3,1323.26 1351,1270.5C 1358.12,1257.05 1368.28,1246.55 1381.5,1239C 1390.13,1235.37 1399.13,1233.87 1408.5,1234.5C 1408.34,1237.19 1408.5,1239.85 1409,1242.5C 1415.29,1244.81 1420.96,1248.14 1426,1252.5C 1430.19,1258.63 1430.52,1264.97 1427,1271.5C 1396.45,1326.71 1360.45,1378.04 1319,1425.5C 1316.29,1436.64 1320.79,1441.98 1332.5,1441.5C 1370.53,1441.91 1408.2,1438.41 1445.5,1431C 1473.89,1425.02 1502.23,1418.86 1530.5,1412.5C 1542.03,1412.93 1546.2,1418.59 1543,1429.5C 1540.59,1431.96 1537.76,1433.79 1534.5,1435C 1496.02,1450.41 1457.02,1464.41 1417.5,1477C 1402.33,1481.1 1387,1484.43 1371.5,1487C 1335.9,1491.91 1300.24,1496.24 1264.5,1500C 1252.92,1501.08 1242.25,1504.75 1232.5,1511C 1211.91,1531.6 1189.58,1549.93 1165.5,1566C 1129.87,1588.32 1092.87,1608.32 1054.5,1626C 1051.5,1628.35 1049.5,1631.35 1048.5,1635C 1052.34,1638.92 1057.01,1641.25 1062.5,1642C 1126.81,1643.15 1190.14,1635.82 1252.5,1620C 1311.61,1604.85 1369.28,1585.52 1425.5,1562C 1451.83,1548.17 1477.16,1532.84 1501.5,1516C 1509,1511.41 1516.67,1507.08 1524.5,1503C 1535.66,1501.82 1540.16,1506.66 1538,1517.5C 1278.77,1696.87 999.272,1736.37 699.5,1636C 566.083,1587.4 452.583,1509.9 359,1403.5C 318.962,1358.46 283.962,1309.79 254,1257.5C 247.449,1240.43 249.116,1224.1 259,1208.5C 267.715,1193.93 280.215,1184.6 296.5,1180.5 Z M 674.5,1411.5 C 680.945,1411.46 687.278,1412.3 693.5,1414C 706.183,1418.51 718.516,1423.84 730.5,1430C 844.382,1467.38 961.049,1491.04 1080.5,1501C 1102.81,1502.5 1125.14,1503.5 1147.5,1504C 1154.01,1506.19 1156.51,1510.69 1155,1517.5C 1101.56,1564.84 1041.73,1602.67 975.5,1631C 962.455,1635.11 949.122,1636.44 935.5,1635C 904.241,1628.95 872.908,1623.28 841.5,1618C 827.123,1615.99 814.456,1610.33 803.5,1601C 751.714,1549.22 709.214,1490.72 676,1425.5C 673.842,1420.92 673.342,1416.25 674.5,1411.5 Z"/></g>
<g><path style="opacity:0.686" fill="#4b2e63" d="M 951.5,1186.5 C 952.931,1187.78 953.598,1189.45 953.5,1191.5C 950.837,1193.06 948.837,1192.39 947.5,1189.5C 948.283,1187.71 949.616,1186.71 951.5,1186.5 Z"/></g>
<g><path style="opacity:0.548" fill="#f6f4f5" d="M 1234.5,1187.5 C 1235.82,1189.56 1235.32,1191.22 1233,1192.5C 1232.28,1191.96 1231.78,1191.29 1231.5,1190.5C 1231.5,1188.5 1232.5,1187.5 1234.5,1187.5 Z"/></g>
<g><path style="opacity:0.873" fill="#faf9f9" d="M 1225.5,1195.5 C 1231.81,1194.69 1234.48,1197.35 1233.5,1203.5C 1233.73,1211.37 1230.56,1217.37 1224,1221.5C 1218.4,1216.16 1217.07,1209.83 1220,1202.5C 1221.67,1200 1223.5,1197.67 1225.5,1195.5 Z"/></g>
<g><path style="opacity:0.894" fill="#d13a80" d="M 1691.5,1351.5 C 1692.04,1351.56 1692.38,1351.89 1692.5,1352.5C 1682.23,1369.38 1670.73,1385.38 1658,1400.5C 1626.39,1435.85 1592.23,1468.35 1555.5,1498C 1544.81,1501.6 1540.97,1498.1 1544,1487.5C 1549.5,1482 1555,1476.5 1560.5,1471C 1606.76,1434.25 1650.42,1394.42 1691.5,1351.5 Z"/></g>
</svg>
